<mxfile host="Electron" agent="Mozilla/5.0 (Windows NT 10.0; Win64; x64) AppleWebKit/537.36 (KHTML, like Gecko) draw.io/24.7.17 Chrome/128.0.6613.36 Electron/32.0.1 Safari/537.36" version="24.7.17">
  <diagram id="C5RBs43oDa-KdzZeNtuy" name="Page-1">
    <mxGraphModel dx="1782" dy="565" grid="1" gridSize="10" guides="1" tooltips="1" connect="1" arrows="1" fold="1" page="1" pageScale="1" pageWidth="827" pageHeight="1169" background="#99b3ff" math="0" shadow="0">
      <root>
        <mxCell id="WIyWlLk6GJQsqaUBKTNV-0" />
        <mxCell id="WIyWlLk6GJQsqaUBKTNV-1" parent="WIyWlLk6GJQsqaUBKTNV-0" />
        <mxCell id="8YJlmUMI55xZdxhNdmQx-0" value="START" style="ellipse;whiteSpace=wrap;html=1;" parent="WIyWlLk6GJQsqaUBKTNV-1" vertex="1">
          <mxGeometry x="370" width="100" height="70" as="geometry" />
        </mxCell>
        <mxCell id="8YJlmUMI55xZdxhNdmQx-12" style="edgeStyle=orthogonalEdgeStyle;rounded=0;orthogonalLoop=1;jettySize=auto;html=1;entryX=0.5;entryY=0;entryDx=0;entryDy=0;exitX=0.5;exitY=0;exitDx=0;exitDy=0;" parent="WIyWlLk6GJQsqaUBKTNV-1" source="8YJlmUMI55xZdxhNdmQx-8" target="8YJlmUMI55xZdxhNdmQx-8" edge="1">
          <mxGeometry relative="1" as="geometry" />
        </mxCell>
        <mxCell id="8YJlmUMI55xZdxhNdmQx-3" value="&lt;div&gt;&amp;nbsp;&amp;nbsp;&amp;nbsp; selamat datang&lt;br&gt;&lt;/div&gt;&lt;div&gt;pilih opsi&lt;/div&gt;&lt;div&gt;1.register&lt;/div&gt;&lt;div&gt;2.login&lt;/div&gt;&lt;div&gt;3.exit&lt;br&gt;&lt;/div&gt;" style="shape=parallelogram;perimeter=parallelogramPerimeter;whiteSpace=wrap;html=1;fixedSize=1;" parent="WIyWlLk6GJQsqaUBKTNV-1" vertex="1">
          <mxGeometry x="360" y="200" width="120" height="70" as="geometry" />
        </mxCell>
        <mxCell id="8YJlmUMI55xZdxhNdmQx-5" value="" style="endArrow=classic;html=1;rounded=0;entryX=0.5;entryY=0;entryDx=0;entryDy=0;" parent="WIyWlLk6GJQsqaUBKTNV-1" target="8YJlmUMI55xZdxhNdmQx-8" edge="1">
          <mxGeometry width="50" height="50" relative="1" as="geometry">
            <mxPoint x="420" y="270" as="sourcePoint" />
            <mxPoint x="419.5" y="310" as="targetPoint" />
          </mxGeometry>
        </mxCell>
        <mxCell id="8YJlmUMI55xZdxhNdmQx-7" value="" style="endArrow=classic;html=1;rounded=0;" parent="WIyWlLk6GJQsqaUBKTNV-1" target="8YJlmUMI55xZdxhNdmQx-8" edge="1">
          <mxGeometry width="50" height="50" relative="1" as="geometry">
            <mxPoint x="419.5" y="360" as="sourcePoint" />
            <mxPoint x="419.5" y="420" as="targetPoint" />
          </mxGeometry>
        </mxCell>
        <mxCell id="8YJlmUMI55xZdxhNdmQx-8" value="&amp;nbsp;pilihan" style="shape=parallelogram;perimeter=parallelogramPerimeter;whiteSpace=wrap;html=1;fixedSize=1;" parent="WIyWlLk6GJQsqaUBKTNV-1" vertex="1">
          <mxGeometry x="360" y="320" width="120" height="60" as="geometry" />
        </mxCell>
        <mxCell id="8YJlmUMI55xZdxhNdmQx-9" value="pilihan == 1" style="rhombus;whiteSpace=wrap;html=1;" parent="WIyWlLk6GJQsqaUBKTNV-1" vertex="1">
          <mxGeometry x="360" y="430" width="120" height="80" as="geometry" />
        </mxCell>
        <mxCell id="8YJlmUMI55xZdxhNdmQx-10" value="" style="endArrow=classic;html=1;rounded=0;" parent="WIyWlLk6GJQsqaUBKTNV-1" edge="1">
          <mxGeometry width="50" height="50" relative="1" as="geometry">
            <mxPoint x="420" y="380" as="sourcePoint" />
            <mxPoint x="419.5" y="430" as="targetPoint" />
          </mxGeometry>
        </mxCell>
        <mxCell id="8YJlmUMI55xZdxhNdmQx-13" value="" style="endArrow=classic;html=1;rounded=0;" parent="WIyWlLk6GJQsqaUBKTNV-1" edge="1">
          <mxGeometry width="50" height="50" relative="1" as="geometry">
            <mxPoint x="419.5" y="509.5" as="sourcePoint" />
            <mxPoint x="419.5" y="570" as="targetPoint" />
          </mxGeometry>
        </mxCell>
        <mxCell id="8YJlmUMI55xZdxhNdmQx-16" value="pilihan == 2" style="rhombus;whiteSpace=wrap;html=1;" parent="WIyWlLk6GJQsqaUBKTNV-1" vertex="1">
          <mxGeometry x="210" y="510" width="120" height="80" as="geometry" />
        </mxCell>
        <mxCell id="8YJlmUMI55xZdxhNdmQx-17" value="pilihan == 3" style="rhombus;whiteSpace=wrap;html=1;" parent="WIyWlLk6GJQsqaUBKTNV-1" vertex="1">
          <mxGeometry x="60" y="590" width="120" height="80" as="geometry" />
        </mxCell>
        <mxCell id="8YJlmUMI55xZdxhNdmQx-19" value="" style="endArrow=classic;html=1;rounded=0;exitX=0.5;exitY=1;exitDx=0;exitDy=0;" parent="WIyWlLk6GJQsqaUBKTNV-1" source="8YJlmUMI55xZdxhNdmQx-16" edge="1">
          <mxGeometry width="50" height="50" relative="1" as="geometry">
            <mxPoint x="271.96" y="570" as="sourcePoint" />
            <mxPoint x="360" y="740" as="targetPoint" />
            <Array as="points">
              <mxPoint x="270" y="690" />
              <mxPoint x="360" y="690" />
            </Array>
          </mxGeometry>
        </mxCell>
        <mxCell id="8YJlmUMI55xZdxhNdmQx-26" value="admin = nabila, 036" style="rounded=0;whiteSpace=wrap;html=1;" parent="WIyWlLk6GJQsqaUBKTNV-1" vertex="1">
          <mxGeometry x="360" y="100" width="120" height="60" as="geometry" />
        </mxCell>
        <mxCell id="8YJlmUMI55xZdxhNdmQx-29" value="" style="endArrow=classic;html=1;rounded=0;" parent="WIyWlLk6GJQsqaUBKTNV-1" edge="1">
          <mxGeometry width="50" height="50" relative="1" as="geometry">
            <mxPoint x="420" y="70" as="sourcePoint" />
            <mxPoint x="420" y="100" as="targetPoint" />
          </mxGeometry>
        </mxCell>
        <mxCell id="8YJlmUMI55xZdxhNdmQx-30" value="" style="endArrow=classic;html=1;rounded=0;" parent="WIyWlLk6GJQsqaUBKTNV-1" edge="1">
          <mxGeometry width="50" height="50" relative="1" as="geometry">
            <mxPoint x="420" y="160" as="sourcePoint" />
            <mxPoint x="419.5" y="200" as="targetPoint" />
          </mxGeometry>
        </mxCell>
        <mxCell id="8YJlmUMI55xZdxhNdmQx-32" value="admin?" style="rhombus;whiteSpace=wrap;html=1;" parent="WIyWlLk6GJQsqaUBKTNV-1" vertex="1">
          <mxGeometry x="302.5" y="1108" width="120" height="80" as="geometry" />
        </mxCell>
        <mxCell id="8YJlmUMI55xZdxhNdmQx-34" value="" style="endArrow=classic;html=1;rounded=0;exitX=0;exitY=0.5;exitDx=0;exitDy=0;" parent="WIyWlLk6GJQsqaUBKTNV-1" source="8YJlmUMI55xZdxhNdmQx-79" target="8YJlmUMI55xZdxhNdmQx-75" edge="1">
          <mxGeometry width="50" height="50" relative="1" as="geometry">
            <mxPoint x="302.5" y="1410" as="sourcePoint" />
            <mxPoint x="242.5" y="1450" as="targetPoint" />
            <Array as="points">
              <mxPoint x="220" y="1425" />
            </Array>
          </mxGeometry>
        </mxCell>
        <mxCell id="8YJlmUMI55xZdxhNdmQx-35" value="" style="endArrow=classic;html=1;rounded=0;" parent="WIyWlLk6GJQsqaUBKTNV-1" edge="1">
          <mxGeometry width="50" height="50" relative="1" as="geometry">
            <mxPoint x="362.5" y="1470" as="sourcePoint" />
            <mxPoint x="362" y="1510" as="targetPoint" />
          </mxGeometry>
        </mxCell>
        <mxCell id="8YJlmUMI55xZdxhNdmQx-36" value="" style="endArrow=classic;html=1;rounded=0;" parent="WIyWlLk6GJQsqaUBKTNV-1" edge="1">
          <mxGeometry width="50" height="50" relative="1" as="geometry">
            <mxPoint x="362.5" y="1340" as="sourcePoint" />
            <mxPoint x="362" y="1380" as="targetPoint" />
          </mxGeometry>
        </mxCell>
        <mxCell id="8YJlmUMI55xZdxhNdmQx-37" value="" style="endArrow=classic;html=1;rounded=0;" parent="WIyWlLk6GJQsqaUBKTNV-1" edge="1">
          <mxGeometry width="50" height="50" relative="1" as="geometry">
            <mxPoint x="222.5" y="1560" as="sourcePoint" />
            <mxPoint x="222" y="1600" as="targetPoint" />
          </mxGeometry>
        </mxCell>
        <mxCell id="8YJlmUMI55xZdxhNdmQx-38" value="" style="endArrow=classic;html=1;rounded=0;entryX=0.5;entryY=0;entryDx=0;entryDy=0;" parent="WIyWlLk6GJQsqaUBKTNV-1" target="8YJlmUMI55xZdxhNdmQx-95" edge="1">
          <mxGeometry width="50" height="50" relative="1" as="geometry">
            <mxPoint x="42.5" y="1675" as="sourcePoint" />
            <mxPoint x="42" y="1715" as="targetPoint" />
          </mxGeometry>
        </mxCell>
        <mxCell id="8YJlmUMI55xZdxhNdmQx-39" value="" style="endArrow=classic;html=1;rounded=0;" parent="WIyWlLk6GJQsqaUBKTNV-1" edge="1">
          <mxGeometry width="50" height="50" relative="1" as="geometry">
            <mxPoint x="1210.5" y="1340" as="sourcePoint" />
            <mxPoint x="1210" y="1380" as="targetPoint" />
          </mxGeometry>
        </mxCell>
        <mxCell id="8YJlmUMI55xZdxhNdmQx-40" value="" style="endArrow=classic;html=1;rounded=0;exitX=1;exitY=0.5;exitDx=0;exitDy=0;" parent="WIyWlLk6GJQsqaUBKTNV-1" source="8YJlmUMI55xZdxhNdmQx-70" target="8YJlmUMI55xZdxhNdmQx-3" edge="1">
          <mxGeometry width="50" height="50" relative="1" as="geometry">
            <mxPoint x="460.5" y="1000" as="sourcePoint" />
            <mxPoint x="500" y="240" as="targetPoint" />
            <Array as="points">
              <mxPoint x="560" y="1015" />
              <mxPoint x="560" y="600" />
              <mxPoint x="560" y="235" />
            </Array>
          </mxGeometry>
        </mxCell>
        <mxCell id="8YJlmUMI55xZdxhNdmQx-72" value="false" style="edgeLabel;html=1;align=center;verticalAlign=middle;resizable=0;points=[];" parent="8YJlmUMI55xZdxhNdmQx-40" vertex="1" connectable="0">
          <mxGeometry x="-0.8271" y="1" relative="1" as="geometry">
            <mxPoint as="offset" />
          </mxGeometry>
        </mxCell>
        <mxCell id="8YJlmUMI55xZdxhNdmQx-41" value="" style="endArrow=classic;html=1;rounded=0;entryX=0.5;entryY=0;entryDx=0;entryDy=0;" parent="WIyWlLk6GJQsqaUBKTNV-1" target="8YJlmUMI55xZdxhNdmQx-60" edge="1">
          <mxGeometry width="50" height="50" relative="1" as="geometry">
            <mxPoint x="362.5" y="1188" as="sourcePoint" />
            <mxPoint x="362" y="1228" as="targetPoint" />
          </mxGeometry>
        </mxCell>
        <mxCell id="8YJlmUMI55xZdxhNdmQx-85" value="True" style="edgeLabel;html=1;align=center;verticalAlign=middle;resizable=0;points=[];" parent="8YJlmUMI55xZdxhNdmQx-41" vertex="1" connectable="0">
          <mxGeometry x="-0.4231" y="1" relative="1" as="geometry">
            <mxPoint as="offset" />
          </mxGeometry>
        </mxCell>
        <mxCell id="8YJlmUMI55xZdxhNdmQx-42" value="" style="endArrow=classic;html=1;rounded=0;entryX=0.5;entryY=0;entryDx=0;entryDy=0;" parent="WIyWlLk6GJQsqaUBKTNV-1" target="8YJlmUMI55xZdxhNdmQx-68" edge="1">
          <mxGeometry width="50" height="50" relative="1" as="geometry">
            <mxPoint x="359.5" y="810" as="sourcePoint" />
            <mxPoint x="359" y="850" as="targetPoint" />
          </mxGeometry>
        </mxCell>
        <mxCell id="8YJlmUMI55xZdxhNdmQx-43" value="" style="endArrow=classic;html=1;rounded=0;" parent="WIyWlLk6GJQsqaUBKTNV-1" edge="1">
          <mxGeometry width="50" height="50" relative="1" as="geometry">
            <mxPoint x="362" y="1060" as="sourcePoint" />
            <mxPoint x="362" y="1110" as="targetPoint" />
          </mxGeometry>
        </mxCell>
        <mxCell id="8YJlmUMI55xZdxhNdmQx-59" value="True" style="edgeLabel;html=1;align=center;verticalAlign=middle;resizable=0;points=[];" parent="8YJlmUMI55xZdxhNdmQx-43" vertex="1" connectable="0">
          <mxGeometry x="-0.56" y="3" relative="1" as="geometry">
            <mxPoint as="offset" />
          </mxGeometry>
        </mxCell>
        <mxCell id="8YJlmUMI55xZdxhNdmQx-44" value="" style="endArrow=classic;html=1;rounded=0;entryX=0.547;entryY=0.033;entryDx=0;entryDy=0;entryPerimeter=0;" parent="WIyWlLk6GJQsqaUBKTNV-1" target="8YJlmUMI55xZdxhNdmQx-57" edge="1">
          <mxGeometry width="50" height="50" relative="1" as="geometry">
            <mxPoint x="422.5" y="1150" as="sourcePoint" />
            <mxPoint x="1210" y="1220" as="targetPoint" />
            <Array as="points">
              <mxPoint x="1213" y="1150" />
            </Array>
          </mxGeometry>
        </mxCell>
        <mxCell id="8YJlmUMI55xZdxhNdmQx-58" value="false" style="edgeLabel;html=1;align=center;verticalAlign=middle;resizable=0;points=[];" parent="8YJlmUMI55xZdxhNdmQx-44" vertex="1" connectable="0">
          <mxGeometry x="-0.2857" relative="1" as="geometry">
            <mxPoint y="1" as="offset" />
          </mxGeometry>
        </mxCell>
        <mxCell id="8YJlmUMI55xZdxhNdmQx-45" value="" style="endArrow=classic;html=1;rounded=0;" parent="WIyWlLk6GJQsqaUBKTNV-1" edge="1">
          <mxGeometry width="50" height="50" relative="1" as="geometry">
            <mxPoint x="360.5" y="930" as="sourcePoint" />
            <mxPoint x="360" y="970" as="targetPoint" />
          </mxGeometry>
        </mxCell>
        <mxCell id="8YJlmUMI55xZdxhNdmQx-48" value="" style="endArrow=classic;html=1;rounded=0;exitX=0.5;exitY=1;exitDx=0;exitDy=0;" parent="WIyWlLk6GJQsqaUBKTNV-1" source="8YJlmUMI55xZdxhNdmQx-66" edge="1">
          <mxGeometry width="50" height="50" relative="1" as="geometry">
            <mxPoint x="430" y="630" as="sourcePoint" />
            <mxPoint x="360" y="740" as="targetPoint" />
            <Array as="points">
              <mxPoint x="420" y="690" />
              <mxPoint x="360" y="690" />
            </Array>
          </mxGeometry>
        </mxCell>
        <mxCell id="8YJlmUMI55xZdxhNdmQx-57" value="&lt;div&gt;Menu pengguna&lt;br&gt;&lt;/div&gt;&lt;div&gt;1. tambah transaksi&lt;/div&gt;&lt;div&gt;2. tampilkan transaksi &lt;br&gt;&lt;/div&gt;&lt;div&gt;3. Ubah transakssi&lt;/div&gt;&lt;div&gt;4.hapus transaksi&lt;/div&gt;&lt;div&gt;5. keluar&lt;br&gt;&lt;/div&gt;" style="shape=parallelogram;perimeter=parallelogramPerimeter;whiteSpace=wrap;html=1;fixedSize=1;" parent="WIyWlLk6GJQsqaUBKTNV-1" vertex="1">
          <mxGeometry x="1120" y="1240" width="170" height="100" as="geometry" />
        </mxCell>
        <mxCell id="8YJlmUMI55xZdxhNdmQx-60" value="&lt;div&gt;Menu admin&lt;br&gt;&lt;/div&gt;&lt;div&gt;1. tambah transaksi&lt;/div&gt;&lt;div&gt;2. tampilkan semua transaksi &lt;br&gt;&lt;/div&gt;&lt;div&gt;3. Ubah transakssi&lt;/div&gt;&lt;div&gt;4.hapus transaksi&lt;br&gt;&lt;/div&gt;&lt;div&gt;5. keluar&lt;br&gt;&lt;/div&gt;" style="shape=parallelogram;perimeter=parallelogramPerimeter;whiteSpace=wrap;html=1;fixedSize=1;" parent="WIyWlLk6GJQsqaUBKTNV-1" vertex="1">
          <mxGeometry x="267.5" y="1240" width="190" height="100" as="geometry" />
        </mxCell>
        <mxCell id="8YJlmUMI55xZdxhNdmQx-66" value="&lt;div&gt;Output&lt;/div&gt;&lt;div&gt;&lt;div&gt;buat username&lt;/div&gt;&lt;div&gt;buat password&lt;br&gt;&lt;/div&gt;&lt;/div&gt;" style="shape=parallelogram;perimeter=parallelogramPerimeter;whiteSpace=wrap;html=1;fixedSize=1;" parent="WIyWlLk6GJQsqaUBKTNV-1" vertex="1">
          <mxGeometry x="360" y="570" width="120" height="60" as="geometry" />
        </mxCell>
        <mxCell id="8YJlmUMI55xZdxhNdmQx-67" value="ouput&lt;br&gt;&lt;div&gt;&lt;div&gt;masukkan username&lt;/div&gt;&lt;div&gt;masukkan password&lt;br&gt;&lt;/div&gt;&lt;/div&gt;" style="shape=parallelogram;perimeter=parallelogramPerimeter;whiteSpace=wrap;html=1;fixedSize=1;" parent="WIyWlLk6GJQsqaUBKTNV-1" vertex="1">
          <mxGeometry x="290" y="740" width="140" height="70" as="geometry" />
        </mxCell>
        <mxCell id="8YJlmUMI55xZdxhNdmQx-68" value="&lt;div&gt;input&lt;/div&gt;&lt;div&gt;username&lt;/div&gt;&lt;div&gt;password&lt;br&gt;&lt;/div&gt;" style="shape=parallelogram;perimeter=parallelogramPerimeter;whiteSpace=wrap;html=1;fixedSize=1;" parent="WIyWlLk6GJQsqaUBKTNV-1" vertex="1">
          <mxGeometry x="300" y="870" width="120" height="60" as="geometry" />
        </mxCell>
        <mxCell id="8YJlmUMI55xZdxhNdmQx-70" value="check apakah akun ada?" style="rhombus;whiteSpace=wrap;html=1;" parent="WIyWlLk6GJQsqaUBKTNV-1" vertex="1">
          <mxGeometry x="290" y="970" width="145" height="90" as="geometry" />
        </mxCell>
        <mxCell id="8YJlmUMI55xZdxhNdmQx-73" value="pilihan pengguna==1" style="rhombus;whiteSpace=wrap;html=1;" parent="WIyWlLk6GJQsqaUBKTNV-1" vertex="1">
          <mxGeometry x="1140" y="1380" width="145" height="90" as="geometry" />
        </mxCell>
        <mxCell id="8YJlmUMI55xZdxhNdmQx-75" value="pilihan admin==2" style="rhombus;whiteSpace=wrap;html=1;" parent="WIyWlLk6GJQsqaUBKTNV-1" vertex="1">
          <mxGeometry x="150" y="1470" width="145" height="90" as="geometry" />
        </mxCell>
        <mxCell id="8YJlmUMI55xZdxhNdmQx-77" value="pilihan pengguna==5" style="rhombus;whiteSpace=wrap;html=1;" parent="WIyWlLk6GJQsqaUBKTNV-1" vertex="1">
          <mxGeometry x="490" y="1830" width="145" height="90" as="geometry" />
        </mxCell>
        <mxCell id="8YJlmUMI55xZdxhNdmQx-78" value="pilihan pengguna==4" style="rhombus;whiteSpace=wrap;html=1;" parent="WIyWlLk6GJQsqaUBKTNV-1" vertex="1">
          <mxGeometry x="690" y="1705" width="145" height="90" as="geometry" />
        </mxCell>
        <mxCell id="8YJlmUMI55xZdxhNdmQx-79" value="pilihan admin==1" style="rhombus;whiteSpace=wrap;html=1;" parent="WIyWlLk6GJQsqaUBKTNV-1" vertex="1">
          <mxGeometry x="290" y="1380" width="145" height="90" as="geometry" />
        </mxCell>
        <mxCell id="8YJlmUMI55xZdxhNdmQx-80" value="pilihan pengguna==2" style="rhombus;whiteSpace=wrap;html=1;" parent="WIyWlLk6GJQsqaUBKTNV-1" vertex="1">
          <mxGeometry x="995" y="1470" width="145" height="90" as="geometry" />
        </mxCell>
        <mxCell id="8YJlmUMI55xZdxhNdmQx-81" value="pilihan admin==3" style="rhombus;whiteSpace=wrap;html=1;" parent="WIyWlLk6GJQsqaUBKTNV-1" vertex="1">
          <mxGeometry x="-30" y="1585" width="145" height="90" as="geometry" />
        </mxCell>
        <mxCell id="8YJlmUMI55xZdxhNdmQx-82" value="pilihan admin==4" style="rhombus;whiteSpace=wrap;html=1;" parent="WIyWlLk6GJQsqaUBKTNV-1" vertex="1">
          <mxGeometry x="-210" y="1705" width="145" height="90" as="geometry" />
        </mxCell>
        <mxCell id="8YJlmUMI55xZdxhNdmQx-83" value="pilihan pengguna==5" style="rhombus;whiteSpace=wrap;html=1;" parent="WIyWlLk6GJQsqaUBKTNV-1" vertex="1">
          <mxGeometry x="-400" y="1825" width="145" height="90" as="geometry" />
        </mxCell>
        <mxCell id="8YJlmUMI55xZdxhNdmQx-86" value="" style="endArrow=classic;html=1;rounded=0;exitX=0;exitY=0.5;exitDx=0;exitDy=0;entryX=0.5;entryY=0;entryDx=0;entryDy=0;" parent="WIyWlLk6GJQsqaUBKTNV-1" source="8YJlmUMI55xZdxhNdmQx-75" target="8YJlmUMI55xZdxhNdmQx-81" edge="1">
          <mxGeometry width="50" height="50" relative="1" as="geometry">
            <mxPoint x="170" y="1495" as="sourcePoint" />
            <mxPoint x="122.5" y="1520" as="targetPoint" />
            <Array as="points">
              <mxPoint x="43" y="1515" />
            </Array>
          </mxGeometry>
        </mxCell>
        <mxCell id="8YJlmUMI55xZdxhNdmQx-87" value="" style="endArrow=classic;html=1;rounded=0;exitX=0;exitY=0.5;exitDx=0;exitDy=0;entryX=0.5;entryY=0;entryDx=0;entryDy=0;" parent="WIyWlLk6GJQsqaUBKTNV-1" source="8YJlmUMI55xZdxhNdmQx-81" target="8YJlmUMI55xZdxhNdmQx-82" edge="1">
          <mxGeometry width="50" height="50" relative="1" as="geometry">
            <mxPoint x="20" y="1600" as="sourcePoint" />
            <mxPoint x="-27.5" y="1625" as="targetPoint" />
            <Array as="points">
              <mxPoint x="-137" y="1630" />
            </Array>
          </mxGeometry>
        </mxCell>
        <mxCell id="8YJlmUMI55xZdxhNdmQx-89" value="" style="endArrow=classic;html=1;rounded=0;exitX=0;exitY=0.5;exitDx=0;exitDy=0;entryX=0.5;entryY=0;entryDx=0;entryDy=0;" parent="WIyWlLk6GJQsqaUBKTNV-1" source="8YJlmUMI55xZdxhNdmQx-82" target="8YJlmUMI55xZdxhNdmQx-83" edge="1">
          <mxGeometry width="50" height="50" relative="1" as="geometry">
            <mxPoint x="-75" y="1639" as="sourcePoint" />
            <mxPoint x="-120" y="1700" as="targetPoint" />
            <Array as="points">
              <mxPoint x="-327" y="1750" />
            </Array>
          </mxGeometry>
        </mxCell>
        <mxCell id="8YJlmUMI55xZdxhNdmQx-90" value="&lt;div&gt;input&lt;/div&gt;&lt;div&gt;transaksi&lt;br&gt;&lt;/div&gt;" style="shape=parallelogram;perimeter=parallelogramPerimeter;whiteSpace=wrap;html=1;fixedSize=1;" parent="WIyWlLk6GJQsqaUBKTNV-1" vertex="1">
          <mxGeometry x="300" y="1510" width="120" height="60" as="geometry" />
        </mxCell>
        <mxCell id="8YJlmUMI55xZdxhNdmQx-94" value="&lt;div&gt;Output &lt;br&gt;&lt;/div&gt;&lt;div&gt;semua data transaksi&lt;br&gt;&lt;/div&gt;" style="shape=parallelogram;perimeter=parallelogramPerimeter;whiteSpace=wrap;html=1;fixedSize=1;" parent="WIyWlLk6GJQsqaUBKTNV-1" vertex="1">
          <mxGeometry x="143" y="1600" width="147" height="60" as="geometry" />
        </mxCell>
        <mxCell id="8YJlmUMI55xZdxhNdmQx-95" value="&lt;div&gt;input&lt;/div&gt;&lt;div&gt;ubah/update data baru&lt;br&gt;&lt;/div&gt;" style="shape=parallelogram;perimeter=parallelogramPerimeter;whiteSpace=wrap;html=1;fixedSize=1;" parent="WIyWlLk6GJQsqaUBKTNV-1" vertex="1">
          <mxGeometry x="-32" y="1720" width="147" height="60" as="geometry" />
        </mxCell>
        <mxCell id="8YJlmUMI55xZdxhNdmQx-96" value="" style="endArrow=classic;html=1;rounded=0;entryX=0.5;entryY=0;entryDx=0;entryDy=0;" parent="WIyWlLk6GJQsqaUBKTNV-1" edge="1">
          <mxGeometry width="50" height="50" relative="1" as="geometry">
            <mxPoint x="-137.5" y="1795" as="sourcePoint" />
            <mxPoint x="-138" y="1840" as="targetPoint" />
          </mxGeometry>
        </mxCell>
        <mxCell id="8YJlmUMI55xZdxhNdmQx-98" value="hapus data yang invalid/tidak relevan" style="rounded=0;whiteSpace=wrap;html=1;" parent="WIyWlLk6GJQsqaUBKTNV-1" vertex="1">
          <mxGeometry x="-197.5" y="1840" width="120" height="60" as="geometry" />
        </mxCell>
        <mxCell id="8YJlmUMI55xZdxhNdmQx-100" value="" style="endArrow=classic;html=1;rounded=0;exitX=0;exitY=0.5;exitDx=0;exitDy=0;" parent="WIyWlLk6GJQsqaUBKTNV-1" edge="1">
          <mxGeometry width="50" height="50" relative="1" as="geometry">
            <mxPoint x="1140" y="1424" as="sourcePoint" />
            <mxPoint x="1071" y="1470" as="targetPoint" />
            <Array as="points">
              <mxPoint x="1070" y="1424" />
            </Array>
          </mxGeometry>
        </mxCell>
        <mxCell id="8YJlmUMI55xZdxhNdmQx-101" value="" style="endArrow=classic;html=1;rounded=0;exitX=0;exitY=0.5;exitDx=0;exitDy=0;entryX=0.5;entryY=0;entryDx=0;entryDy=0;" parent="WIyWlLk6GJQsqaUBKTNV-1" target="8YJlmUMI55xZdxhNdmQx-76" edge="1">
          <mxGeometry width="50" height="50" relative="1" as="geometry">
            <mxPoint x="995" y="1517" as="sourcePoint" />
            <mxPoint x="926" y="1563" as="targetPoint" />
            <Array as="points">
              <mxPoint x="919" y="1517" />
            </Array>
          </mxGeometry>
        </mxCell>
        <mxCell id="8YJlmUMI55xZdxhNdmQx-102" value="" style="endArrow=classic;html=1;rounded=0;exitX=0;exitY=0.5;exitDx=0;exitDy=0;" parent="WIyWlLk6GJQsqaUBKTNV-1" source="8YJlmUMI55xZdxhNdmQx-76" target="8YJlmUMI55xZdxhNdmQx-78" edge="1">
          <mxGeometry width="50" height="50" relative="1" as="geometry">
            <mxPoint x="855" y="1604" as="sourcePoint" />
            <mxPoint x="786" y="1650" as="targetPoint" />
            <Array as="points">
              <mxPoint x="763" y="1630" />
            </Array>
          </mxGeometry>
        </mxCell>
        <mxCell id="8YJlmUMI55xZdxhNdmQx-103" value="" style="endArrow=classic;html=1;rounded=0;exitX=0;exitY=0.5;exitDx=0;exitDy=0;entryX=0.5;entryY=0;entryDx=0;entryDy=0;" parent="WIyWlLk6GJQsqaUBKTNV-1" source="8YJlmUMI55xZdxhNdmQx-78" target="8YJlmUMI55xZdxhNdmQx-77" edge="1">
          <mxGeometry width="50" height="50" relative="1" as="geometry">
            <mxPoint x="690" y="1720" as="sourcePoint" />
            <mxPoint x="621" y="1766" as="targetPoint" />
            <Array as="points">
              <mxPoint x="563" y="1750" />
            </Array>
          </mxGeometry>
        </mxCell>
        <mxCell id="8YJlmUMI55xZdxhNdmQx-104" value="" style="endArrow=classic;html=1;rounded=0;exitX=0;exitY=0.5;exitDx=0;exitDy=0;entryX=0.5;entryY=0;entryDx=0;entryDy=0;" parent="WIyWlLk6GJQsqaUBKTNV-1" target="8YJlmUMI55xZdxhNdmQx-16" edge="1">
          <mxGeometry width="50" height="50" relative="1" as="geometry">
            <mxPoint x="360" y="470" as="sourcePoint" />
            <mxPoint x="291" y="516" as="targetPoint" />
            <Array as="points">
              <mxPoint x="270" y="470" />
            </Array>
          </mxGeometry>
        </mxCell>
        <mxCell id="8YJlmUMI55xZdxhNdmQx-105" value="" style="endArrow=classic;html=1;rounded=0;exitX=0;exitY=0.5;exitDx=0;exitDy=0;entryX=0.5;entryY=0;entryDx=0;entryDy=0;" parent="WIyWlLk6GJQsqaUBKTNV-1" edge="1">
          <mxGeometry width="50" height="50" relative="1" as="geometry">
            <mxPoint x="210" y="550" as="sourcePoint" />
            <mxPoint x="120" y="590" as="targetPoint" />
            <Array as="points">
              <mxPoint x="120" y="550" />
            </Array>
          </mxGeometry>
        </mxCell>
        <mxCell id="8YJlmUMI55xZdxhNdmQx-106" value="&lt;div&gt;input&lt;/div&gt;&lt;div&gt;transaksi&lt;br&gt;&lt;/div&gt;" style="shape=parallelogram;perimeter=parallelogramPerimeter;whiteSpace=wrap;html=1;fixedSize=1;" parent="WIyWlLk6GJQsqaUBKTNV-1" vertex="1">
          <mxGeometry x="1152.5" y="1510" width="120" height="60" as="geometry" />
        </mxCell>
        <mxCell id="8YJlmUMI55xZdxhNdmQx-107" value="" style="endArrow=classic;html=1;rounded=0;" parent="WIyWlLk6GJQsqaUBKTNV-1" edge="1">
          <mxGeometry width="50" height="50" relative="1" as="geometry">
            <mxPoint x="1212.37" y="1470" as="sourcePoint" />
            <mxPoint x="1211.87" y="1510" as="targetPoint" />
          </mxGeometry>
        </mxCell>
        <mxCell id="8YJlmUMI55xZdxhNdmQx-109" value="" style="endArrow=classic;html=1;rounded=0;" parent="WIyWlLk6GJQsqaUBKTNV-1" edge="1">
          <mxGeometry width="50" height="50" relative="1" as="geometry">
            <mxPoint x="1067.37" y="1560" as="sourcePoint" />
            <mxPoint x="1066.87" y="1600" as="targetPoint" />
          </mxGeometry>
        </mxCell>
        <mxCell id="8YJlmUMI55xZdxhNdmQx-110" value="&lt;div&gt;Output &lt;br&gt;&lt;/div&gt;&lt;div&gt;&amp;nbsp;data transaksi&lt;br&gt;&lt;/div&gt;" style="shape=parallelogram;perimeter=parallelogramPerimeter;whiteSpace=wrap;html=1;fixedSize=1;" parent="WIyWlLk6GJQsqaUBKTNV-1" vertex="1">
          <mxGeometry x="993" y="1600" width="147" height="60" as="geometry" />
        </mxCell>
        <mxCell id="8YJlmUMI55xZdxhNdmQx-111" value="" style="endArrow=classic;html=1;rounded=0;entryX=0.5;entryY=0;entryDx=0;entryDy=0;" parent="WIyWlLk6GJQsqaUBKTNV-1" source="8YJlmUMI55xZdxhNdmQx-76" target="8YJlmUMI55xZdxhNdmQx-112" edge="1">
          <mxGeometry width="50" height="50" relative="1" as="geometry">
            <mxPoint x="922.3699999999999" y="1650" as="sourcePoint" />
            <mxPoint x="921.8699999999999" y="1690" as="targetPoint" />
          </mxGeometry>
        </mxCell>
        <mxCell id="8YJlmUMI55xZdxhNdmQx-112" value="&lt;div&gt;input&lt;/div&gt;&lt;div&gt;ubah/update data baru&lt;br&gt;&lt;/div&gt;" style="shape=parallelogram;perimeter=parallelogramPerimeter;whiteSpace=wrap;html=1;fixedSize=1;" parent="WIyWlLk6GJQsqaUBKTNV-1" vertex="1">
          <mxGeometry x="846" y="1705" width="147" height="60" as="geometry" />
        </mxCell>
        <mxCell id="8YJlmUMI55xZdxhNdmQx-113" value="" style="endArrow=classic;html=1;rounded=0;entryX=0.5;entryY=0;entryDx=0;entryDy=0;" parent="WIyWlLk6GJQsqaUBKTNV-1" edge="1">
          <mxGeometry width="50" height="50" relative="1" as="geometry">
            <mxPoint x="762.37" y="1795" as="sourcePoint" />
            <mxPoint x="761.87" y="1840" as="targetPoint" />
          </mxGeometry>
        </mxCell>
        <mxCell id="8YJlmUMI55xZdxhNdmQx-115" value="hapus data yang invalid/tidak relevan" style="rounded=0;whiteSpace=wrap;html=1;" parent="WIyWlLk6GJQsqaUBKTNV-1" vertex="1">
          <mxGeometry x="702.5" y="1840" width="120" height="60" as="geometry" />
        </mxCell>
        <mxCell id="8YJlmUMI55xZdxhNdmQx-116" value="" style="endArrow=classic;html=1;rounded=0;" parent="WIyWlLk6GJQsqaUBKTNV-1" target="8YJlmUMI55xZdxhNdmQx-76" edge="1">
          <mxGeometry width="50" height="50" relative="1" as="geometry">
            <mxPoint x="922.3699999999999" y="1650" as="sourcePoint" />
            <mxPoint x="921.8699999999999" y="1690" as="targetPoint" />
          </mxGeometry>
        </mxCell>
        <mxCell id="8YJlmUMI55xZdxhNdmQx-76" value="pilihan pengguna==3" style="rhombus;whiteSpace=wrap;html=1;" parent="WIyWlLk6GJQsqaUBKTNV-1" vertex="1">
          <mxGeometry x="846" y="1585" width="145" height="90" as="geometry" />
        </mxCell>
        <mxCell id="8YJlmUMI55xZdxhNdmQx-117" value="" style="endArrow=classic;html=1;rounded=0;endFill=1;startArrow=none;startFill=0;" parent="WIyWlLk6GJQsqaUBKTNV-1" edge="1">
          <mxGeometry width="50" height="50" relative="1" as="geometry">
            <mxPoint x="57" y="630" as="sourcePoint" />
            <mxPoint x="360" y="2120" as="targetPoint" />
            <Array as="points">
              <mxPoint x="-450" y="630" />
              <mxPoint x="-453" y="2040" />
              <mxPoint x="360" y="2040" />
            </Array>
          </mxGeometry>
        </mxCell>
        <mxCell id="8YJlmUMI55xZdxhNdmQx-118" value="" style="endArrow=classic;html=1;rounded=0;exitX=0.5;exitY=1;exitDx=0;exitDy=0;strokeColor=none;" parent="WIyWlLk6GJQsqaUBKTNV-1" source="8YJlmUMI55xZdxhNdmQx-83" edge="1">
          <mxGeometry width="50" height="50" relative="1" as="geometry">
            <mxPoint x="-127.5" y="1805" as="sourcePoint" />
            <mxPoint x="-327" y="2040" as="targetPoint" />
            <Array as="points">
              <mxPoint x="-327" y="1990" />
            </Array>
          </mxGeometry>
        </mxCell>
        <mxCell id="8YJlmUMI55xZdxhNdmQx-120" value="" style="endArrow=none;html=1;rounded=0;" parent="WIyWlLk6GJQsqaUBKTNV-1" edge="1">
          <mxGeometry width="50" height="50" relative="1" as="geometry">
            <mxPoint x="-327.9" y="2040" as="sourcePoint" />
            <mxPoint x="-327.9" y="1915" as="targetPoint" />
          </mxGeometry>
        </mxCell>
        <mxCell id="8YJlmUMI55xZdxhNdmQx-122" value="" style="endArrow=none;html=1;rounded=0;" parent="WIyWlLk6GJQsqaUBKTNV-1" edge="1">
          <mxGeometry width="50" height="50" relative="1" as="geometry">
            <mxPoint x="-138" y="2040" as="sourcePoint" />
            <mxPoint x="-137.89999999999998" y="1900" as="targetPoint" />
          </mxGeometry>
        </mxCell>
        <mxCell id="8YJlmUMI55xZdxhNdmQx-123" value="" style="endArrow=none;html=1;rounded=0;" parent="WIyWlLk6GJQsqaUBKTNV-1" edge="1">
          <mxGeometry width="50" height="50" relative="1" as="geometry">
            <mxPoint x="40" y="2040" as="sourcePoint" />
            <mxPoint x="42.1" y="1780" as="targetPoint" />
          </mxGeometry>
        </mxCell>
        <mxCell id="8YJlmUMI55xZdxhNdmQx-124" value="" style="endArrow=none;html=1;rounded=0;" parent="WIyWlLk6GJQsqaUBKTNV-1" edge="1">
          <mxGeometry width="50" height="50" relative="1" as="geometry">
            <mxPoint x="222" y="2040" as="sourcePoint" />
            <mxPoint x="222.10000000000002" y="1660" as="targetPoint" />
          </mxGeometry>
        </mxCell>
        <mxCell id="8YJlmUMI55xZdxhNdmQx-125" value="" style="endArrow=none;html=1;rounded=0;" parent="WIyWlLk6GJQsqaUBKTNV-1" edge="1">
          <mxGeometry width="50" height="50" relative="1" as="geometry">
            <mxPoint x="562" y="2040" as="sourcePoint" />
            <mxPoint x="562.1" y="1920" as="targetPoint" />
          </mxGeometry>
        </mxCell>
        <mxCell id="8YJlmUMI55xZdxhNdmQx-126" value="" style="endArrow=none;html=1;rounded=0;" parent="WIyWlLk6GJQsqaUBKTNV-1" edge="1">
          <mxGeometry width="50" height="50" relative="1" as="geometry">
            <mxPoint x="760" y="2040" as="sourcePoint" />
            <mxPoint x="762.2" y="1900" as="targetPoint" />
          </mxGeometry>
        </mxCell>
        <mxCell id="8YJlmUMI55xZdxhNdmQx-127" value="" style="endArrow=none;html=1;rounded=0;entryX=0.5;entryY=1;entryDx=0;entryDy=0;" parent="WIyWlLk6GJQsqaUBKTNV-1" target="8YJlmUMI55xZdxhNdmQx-106" edge="1">
          <mxGeometry width="50" height="50" relative="1" as="geometry">
            <mxPoint x="360" y="2040" as="sourcePoint" />
            <mxPoint x="1160" y="1850" as="targetPoint" />
            <Array as="points">
              <mxPoint x="1213" y="2040" />
            </Array>
          </mxGeometry>
        </mxCell>
        <mxCell id="8YJlmUMI55xZdxhNdmQx-128" value="" style="endArrow=none;html=1;rounded=0;" parent="WIyWlLk6GJQsqaUBKTNV-1" edge="1">
          <mxGeometry width="50" height="50" relative="1" as="geometry">
            <mxPoint x="921" y="2040" as="sourcePoint" />
            <mxPoint x="920.6" y="1765" as="targetPoint" />
          </mxGeometry>
        </mxCell>
        <mxCell id="8YJlmUMI55xZdxhNdmQx-129" value="" style="endArrow=none;html=1;rounded=0;" parent="WIyWlLk6GJQsqaUBKTNV-1" edge="1">
          <mxGeometry width="50" height="50" relative="1" as="geometry">
            <mxPoint x="1068" y="2040" as="sourcePoint" />
            <mxPoint x="1067.6" y="1660" as="targetPoint" />
          </mxGeometry>
        </mxCell>
        <mxCell id="8YJlmUMI55xZdxhNdmQx-130" value="" style="endArrow=none;html=1;rounded=0;" parent="WIyWlLk6GJQsqaUBKTNV-1" edge="1">
          <mxGeometry width="50" height="50" relative="1" as="geometry">
            <mxPoint x="360" y="2040" as="sourcePoint" />
            <mxPoint x="362.20000000000005" y="1570" as="targetPoint" />
          </mxGeometry>
        </mxCell>
        <mxCell id="8YJlmUMI55xZdxhNdmQx-131" value="&lt;div&gt;Output&lt;/div&gt;&lt;div&gt;Terima kasih telah menggunakan jurnal keuangan&lt;br&gt;&lt;/div&gt;" style="shape=parallelogram;perimeter=parallelogramPerimeter;whiteSpace=wrap;html=1;fixedSize=1;" parent="WIyWlLk6GJQsqaUBKTNV-1" vertex="1">
          <mxGeometry x="232" y="2120" width="256" height="60" as="geometry" />
        </mxCell>
        <mxCell id="8YJlmUMI55xZdxhNdmQx-132" value="" style="endArrow=classic;html=1;rounded=0;endFill=1;" parent="WIyWlLk6GJQsqaUBKTNV-1" target="8YJlmUMI55xZdxhNdmQx-134" edge="1">
          <mxGeometry width="50" height="50" relative="1" as="geometry">
            <mxPoint x="360" y="2180" as="sourcePoint" />
            <mxPoint x="360" y="2210" as="targetPoint" />
          </mxGeometry>
        </mxCell>
        <mxCell id="8YJlmUMI55xZdxhNdmQx-134" value="END" style="ellipse;whiteSpace=wrap;html=1;" parent="WIyWlLk6GJQsqaUBKTNV-1" vertex="1">
          <mxGeometry x="300" y="2220" width="120" height="80" as="geometry" />
        </mxCell>
        <mxCell id="aPoa0OIxS1GHCvVoLN4S-0" value="" style="endArrow=classic;html=1;rounded=0;" parent="WIyWlLk6GJQsqaUBKTNV-1" edge="1">
          <mxGeometry width="50" height="50" relative="1" as="geometry">
            <mxPoint x="360" y="330" as="sourcePoint" />
            <mxPoint x="390" y="330" as="targetPoint" />
          </mxGeometry>
        </mxCell>
        <mxCell id="aPoa0OIxS1GHCvVoLN4S-2" value="" style="endArrow=classic;html=1;rounded=0;" parent="WIyWlLk6GJQsqaUBKTNV-1" edge="1">
          <mxGeometry width="50" height="50" relative="1" as="geometry">
            <mxPoint x="460" y="584" as="sourcePoint" />
            <mxPoint x="490" y="584" as="targetPoint" />
          </mxGeometry>
        </mxCell>
        <mxCell id="aPoa0OIxS1GHCvVoLN4S-3" value="" style="endArrow=classic;html=1;rounded=0;" parent="WIyWlLk6GJQsqaUBKTNV-1" edge="1">
          <mxGeometry width="50" height="50" relative="1" as="geometry">
            <mxPoint x="414" y="760" as="sourcePoint" />
            <mxPoint x="444" y="760" as="targetPoint" />
          </mxGeometry>
        </mxCell>
        <mxCell id="aPoa0OIxS1GHCvVoLN4S-4" value="" style="endArrow=classic;html=1;rounded=0;" parent="WIyWlLk6GJQsqaUBKTNV-1" edge="1">
          <mxGeometry width="50" height="50" relative="1" as="geometry">
            <mxPoint x="302.5" y="880" as="sourcePoint" />
            <mxPoint x="332.5" y="880" as="targetPoint" />
          </mxGeometry>
        </mxCell>
        <mxCell id="aPoa0OIxS1GHCvVoLN4S-7" value="" style="endArrow=classic;html=1;rounded=0;" parent="WIyWlLk6GJQsqaUBKTNV-1" edge="1">
          <mxGeometry width="50" height="50" relative="1" as="geometry">
            <mxPoint x="1152.5" y="1530" as="sourcePoint" />
            <mxPoint x="1182.5" y="1530" as="targetPoint" />
          </mxGeometry>
        </mxCell>
        <mxCell id="aPoa0OIxS1GHCvVoLN4S-8" value="" style="endArrow=classic;html=1;rounded=0;" parent="WIyWlLk6GJQsqaUBKTNV-1" edge="1">
          <mxGeometry width="50" height="50" relative="1" as="geometry">
            <mxPoint x="1120" y="1610" as="sourcePoint" />
            <mxPoint x="1150" y="1610" as="targetPoint" />
          </mxGeometry>
        </mxCell>
        <mxCell id="aPoa0OIxS1GHCvVoLN4S-9" value="" style="endArrow=classic;html=1;rounded=0;" parent="WIyWlLk6GJQsqaUBKTNV-1" edge="1">
          <mxGeometry width="50" height="50" relative="1" as="geometry">
            <mxPoint x="850" y="1720" as="sourcePoint" />
            <mxPoint x="880" y="1720" as="targetPoint" />
          </mxGeometry>
        </mxCell>
        <mxCell id="aPoa0OIxS1GHCvVoLN4S-10" value="" style="endArrow=classic;html=1;rounded=0;" parent="WIyWlLk6GJQsqaUBKTNV-1" edge="1">
          <mxGeometry width="50" height="50" relative="1" as="geometry">
            <mxPoint x="470" y="2140" as="sourcePoint" />
            <mxPoint x="500" y="2140" as="targetPoint" />
          </mxGeometry>
        </mxCell>
        <mxCell id="aPoa0OIxS1GHCvVoLN4S-13" value="" style="endArrow=classic;html=1;rounded=0;" parent="WIyWlLk6GJQsqaUBKTNV-1" edge="1">
          <mxGeometry width="50" height="50" relative="1" as="geometry">
            <mxPoint x="302.5" y="1520" as="sourcePoint" />
            <mxPoint x="332.5" y="1520" as="targetPoint" />
          </mxGeometry>
        </mxCell>
        <mxCell id="aPoa0OIxS1GHCvVoLN4S-14" value="" style="endArrow=classic;html=1;rounded=0;" parent="WIyWlLk6GJQsqaUBKTNV-1" edge="1">
          <mxGeometry width="50" height="50" relative="1" as="geometry">
            <mxPoint x="270" y="1610" as="sourcePoint" />
            <mxPoint x="300" y="1610" as="targetPoint" />
          </mxGeometry>
        </mxCell>
        <mxCell id="aPoa0OIxS1GHCvVoLN4S-15" value="" style="endArrow=classic;html=1;rounded=0;" parent="WIyWlLk6GJQsqaUBKTNV-1" edge="1">
          <mxGeometry width="50" height="50" relative="1" as="geometry">
            <mxPoint x="-30" y="1734.57" as="sourcePoint" />
            <mxPoint y="1734.57" as="targetPoint" />
          </mxGeometry>
        </mxCell>
      </root>
    </mxGraphModel>
  </diagram>
</mxfile>
